<svg width="58" height="55" viewBox="0 0 58 55" fill="none" xmlns="http://www.w3.org/2000/svg">
<path d="M55.7857 13.4694H52.9796V8.41837C52.9796 7.48853 52.2258 6.73469 51.2959 6.73469H25.3462L23.485 1.1513C23.2558 0.463684 22.6124 0 21.8878 0H1.68367C0.753837 0 0 0.753837 0 1.68367V48.8265C0 52.2306 2.76942 55 6.17347 55H51.2959C54.7 55 57.4694 52.2306 57.4694 48.8265V15.1531C57.4694 14.2232 56.7155 13.4694 55.7857 13.4694ZM8.97959 15.1531V48.8265C8.97959 50.3738 7.72077 51.6327 6.17347 51.6327C4.62617 51.6327 3.36735 50.3738 3.36735 48.8265V3.36735H20.6742L22.5353 8.95074C22.7646 9.63836 23.408 10.102 24.1327 10.102H49.6122V13.4694H10.6633C9.73343 13.4694 8.97959 14.2232 8.97959 15.1531ZM54.102 48.8265C54.102 50.3738 52.8432 51.6327 51.2959 51.6327H11.6716C12.1031 50.7904 12.3469 49.8363 12.3469 48.8265V16.8367H54.102V48.8265Z" fill="#D9A3CA"/>
<path d="M33.2245 47.1429C40.3421 47.1429 46.1327 41.3523 46.1327 34.2347C46.1327 27.1171 40.3421 21.3265 33.2245 21.3265C26.1069 21.3265 20.3163 27.1171 20.3163 34.2347C20.3163 41.3523 26.1069 47.1429 33.2245 47.1429ZM33.2245 24.6939C38.4853 24.6939 42.7653 28.9739 42.7653 34.2347C42.7653 39.4955 38.4853 43.7755 33.2245 43.7755C27.9637 43.7755 23.6837 39.4955 23.6837 34.2347C23.6837 28.9739 27.9637 24.6939 33.2245 24.6939Z" fill="#D9A3CA"/>
<path d="M30.2266 40.7917C30.4649 40.9109 30.7228 40.9694 30.9794 40.9694C31.3372 40.9694 31.6927 40.8555 31.9898 40.6327L38.7245 35.5816C39.1484 35.2636 39.398 34.7646 39.398 34.2347C39.398 33.7048 39.1484 33.2058 38.7245 32.8878L31.9898 27.8367C31.4798 27.4541 30.797 27.3926 30.2266 27.6777C29.6562 27.963 29.2959 28.5459 29.2959 29.1837V39.2857C29.2959 39.9235 29.6562 40.5064 30.2266 40.7917ZM32.6633 32.551L34.9082 34.2347L32.6633 35.9184V32.551Z" fill="#D9A3CA"/>
</svg>
