<svg width="86" height="55" viewBox="0 0 86 55" fill="none" xmlns="http://www.w3.org/2000/svg">
<path d="M74.3779 24.0269C76.8963 22.2572 78.5639 19.3134 78.5639 15.9953C78.5639 10.5671 74.1737 6.17689 68.7455 6.17689C63.3174 6.17689 58.9272 10.5671 58.9272 15.9953C58.9272 19.3134 60.5778 22.2572 63.1132 24.0269C60.9521 24.7756 58.9782 25.9327 57.3106 27.4302C55.0135 25.4733 52.3079 23.9759 49.347 23.091C52.9375 20.9129 55.3538 16.9482 55.3538 12.4389C55.3538 5.56431 49.7895 0 42.9149 0C36.0404 0 30.4761 5.58132 30.4761 12.4389C30.4761 16.9482 32.8753 20.9129 36.4828 23.091C33.556 23.9759 30.8844 25.4563 28.6043 27.3791C26.9367 25.9157 24.9968 24.7756 22.8698 24.0439C25.3882 22.2742 27.0558 19.3304 27.0558 16.0123C27.0558 10.5841 22.6656 6.19391 17.2374 6.19391C11.8093 6.19391 7.41907 10.5841 7.41907 16.0123C7.41907 19.3304 9.06965 22.2742 11.6051 24.0439C4.84962 26.3752 0 32.7903 0 40.3285V41.4515C0 41.4856 0.0340324 41.5196 0.0680649 41.5196H20.8789C20.7598 42.4555 20.6917 43.4254 20.6917 44.3953V45.5524C20.6917 50.5552 24.7416 54.6051 29.7444 54.6051H56.1195C61.1223 54.6051 65.1721 50.5552 65.1721 45.5524V44.3953C65.1721 43.4254 65.1041 42.4555 64.985 41.5196H85.9319C85.966 41.5196 86 41.4856 86 41.4515V40.3285C85.966 32.7733 81.1334 26.3581 74.3779 24.0269ZM61.6498 15.9782C61.6498 12.0645 64.8318 8.88247 68.7455 8.88247C72.6593 8.88247 75.8413 12.0645 75.8413 15.9782C75.8413 19.8409 72.7273 22.9889 68.8817 23.074C68.8306 23.074 68.7966 23.074 68.7455 23.074C68.6945 23.074 68.6605 23.074 68.6094 23.074C64.7467 23.0059 61.6498 19.8579 61.6498 15.9782ZM33.1646 12.4389C33.1646 7.07875 37.5208 2.7226 42.8809 2.7226C48.241 2.7226 52.5972 7.07875 52.5972 12.4389C52.5972 17.6118 48.5303 21.8488 43.4424 22.1381C43.2552 22.1381 43.0681 22.1381 42.8809 22.1381C42.6937 22.1381 42.5065 22.1381 42.3194 22.1381C37.2315 21.8488 33.1646 17.6118 33.1646 12.4389ZM10.0906 15.9782C10.0906 12.0645 13.2727 8.88247 17.1864 8.88247C21.1001 8.88247 24.2822 12.0645 24.2822 15.9782C24.2822 19.8409 21.1682 22.9889 17.3225 23.074C17.2715 23.074 17.2374 23.074 17.1864 23.074C17.1353 23.074 17.1013 23.074 17.0503 23.074C13.2046 23.0059 10.0906 19.8579 10.0906 15.9782ZM21.3554 38.78H2.75663C3.52236 31.5311 9.6482 25.8477 17.0843 25.7966C17.1183 25.7966 17.1524 25.7966 17.1864 25.7966C17.2204 25.7966 17.2545 25.7966 17.2885 25.7966C20.8279 25.8136 24.0609 27.1239 26.5623 29.2509C24.112 31.9054 22.2913 35.1725 21.3554 38.78ZM62.4155 45.5524C62.4155 49.0408 59.5738 51.8825 56.0855 51.8825H29.7103C26.222 51.8825 23.3803 49.0408 23.3803 45.5524V44.3953C23.3803 33.8283 31.8203 25.184 42.3194 24.8777C42.5065 24.8947 42.7107 24.8947 42.8979 24.8947C43.0851 24.8947 43.2893 24.8947 43.4765 24.8777C53.9755 25.184 62.4155 33.8283 62.4155 44.3953V45.5524ZM64.4404 38.78C63.5046 35.1896 61.7178 31.9735 59.2845 29.319C61.8029 27.1409 65.07 25.8306 68.6434 25.7966C68.6775 25.7966 68.7115 25.7966 68.7455 25.7966C68.7796 25.7966 68.8136 25.7966 68.8476 25.7966C76.2837 25.8477 82.4096 31.5311 83.1753 38.78H64.4404Z" fill="#D9A3CA"/>
</svg>
