<svg width="50" height="53" viewBox="0 0 50 53" fill="none" xmlns="http://www.w3.org/2000/svg">
<g clip-path="url(#clip0)">
<path d="M1.95424 28.5387L43.3173 28.5387L36.4653 35.7586C35.7008 36.5643 35.6979 37.8736 36.4588 38.6831C37.2197 39.4928 38.4564 39.4958 39.221 38.6902L49.4265 27.9365C49.4271 27.9359 49.4276 27.9352 49.4282 27.9346C50.1908 27.1289 50.1932 25.8153 49.4284 25.0069C49.4277 25.0063 49.4272 25.0055 49.4266 25.0049L39.2212 14.2513C38.4567 13.4458 37.22 13.4486 36.459 14.2583C35.698 15.0678 35.701 16.3772 36.4655 17.1829L43.3173 24.4027L1.95424 24.4027C0.87553 24.4027 0.00111771 25.3286 0.00111771 26.4707C0.00111771 27.6129 0.87553 28.5387 1.95424 28.5387Z" fill="#DB98AC"/>
</g>
<defs>
<clipPath id="clip0">
<rect width="50" height="52.9412" fill="white" transform="translate(50 52.9412) rotate(-180)"/>
</clipPath>
</defs>
</svg>
