<svg width="104" height="113" viewBox="0 0 104 113" fill="none" xmlns="http://www.w3.org/2000/svg">
<path d="M95.3919 43.155C98.6729 37.3969 99.9487 32.017 98.2416 31.1387C96.5344 30.2603 92.4907 34.2162 89.2097 39.9743C85.9287 45.7323 84.6529 51.1122 86.3601 51.9906C88.0672 52.8689 92.1109 48.9131 95.3919 43.155Z" fill="#D9A3CA"/>
<path d="M97.6756 68.3845C100.958 49.1602 87.2214 31.0467 66.9937 27.927C46.7661 24.8073 27.7074 37.8628 24.4249 57.0871C21.1424 76.3115 34.8791 94.4249 55.1068 97.5446C75.3344 100.664 94.3931 87.6089 97.6756 68.3845Z" fill="#D9A3CA"/>
<path d="M55 90.21H44V109.202H55V90.21Z" fill="#D9A3CA"/>
<path d="M78 90.21H67V109.202H78V90.21Z" fill="#D9A3CA"/>
<path d="M53.5 113C58.7467 113 63 111.512 63 109.676C63 107.841 58.7467 106.353 53.5 106.353C48.2533 106.353 44 107.841 44 109.676C44 111.512 48.2533 113 53.5 113Z" fill="#D9A3CA"/>
<path d="M76 113C80.9706 113 85 111.512 85 109.676C85 107.841 80.9706 106.353 76 106.353C71.0294 106.353 67 107.841 67 109.676C67 111.512 71.0294 113 76 113Z" fill="#D9A3CA"/>
<path d="M62 65.5211C69.1797 65.5211 75 60.2068 75 53.6513C75 47.0958 69.1797 41.7816 62 41.7816C54.8203 41.7816 49 47.0958 49 53.6513C49 60.2068 54.8203 65.5211 62 65.5211Z" fill="white"/>
<path d="M62 57.9244C64.2091 57.9244 66 56.0112 66 53.6513C66 51.2913 64.2091 49.3782 62 49.3782C59.7909 49.3782 58 51.2913 58 53.6513C58 56.0112 59.7909 57.9244 62 57.9244Z" fill="#3F3D56"/>
<path d="M25.5413 29.691C22.5847 16.8463 32.036 3.86732 46.6514 0.70157C61.2668 -2.46418 75.5117 5.38214 78.4684 18.2268C81.425 31.0715 71.7389 35.8088 57.1235 38.9745C42.5081 42.1403 28.498 42.5357 25.5413 29.691Z" fill="#73536D"/>
<path d="M36.0207 53.9289C37.3991 51.1668 31.0117 45.5448 21.754 41.3718C12.4964 37.1988 3.8742 36.0551 2.4958 38.8172C1.11741 41.5793 7.50478 47.2013 16.7624 51.3743C26.0201 55.5473 34.6423 56.6911 36.0207 53.9289Z" fill="#D9A3CA"/>
<path d="M43 75.4088C43 78.7885 52.3903 85.4622 62.8103 85.4622C73.2302 85.4622 83 75.9472 83 72.5676C83 69.1879 73.2302 73.2233 62.8103 73.2233C52.3904 73.2233 43 72.0291 43 75.4088Z" fill="white"/>
</svg>
