<svg width="60" height="60" viewBox="0 0 60 60" fill="none" xmlns="http://www.w3.org/2000/svg">
<g clip-path="url(#clip0)">
<path fill-rule="evenodd" clip-rule="evenodd" d="M7.5 18.75V46.875C7.5 50.115 9.9075 52.5 12.5888 52.5H47.4112C50.0925 52.5 52.5 50.115 52.5 46.875V18.75H56.25V46.875C56.25 51.9188 52.4212 56.25 47.4112 56.25H12.5888C7.57875 56.25 3.75 51.9188 3.75 46.875V18.75H7.5Z" fill="#D9A3CA"/>
<path fill-rule="evenodd" clip-rule="evenodd" d="M20.625 28.125C20.625 27.6277 20.8225 27.1508 21.1742 26.7992C21.5258 26.4475 22.0027 26.25 22.5 26.25H37.5C37.9973 26.25 38.4742 26.4475 38.8258 26.7992C39.1775 27.1508 39.375 27.6277 39.375 28.125C39.375 28.6223 39.1775 29.0992 38.8258 29.4508C38.4742 29.8025 37.9973 30 37.5 30H22.5C22.0027 30 21.5258 29.8025 21.1742 29.4508C20.8225 29.0992 20.625 28.6223 20.625 28.125ZM56.25 7.5H3.75V15H56.25V7.5ZM3.75 3.75C2.75544 3.75 1.80161 4.14509 1.09835 4.84835C0.395088 5.55161 0 6.50544 0 7.5L0 15C0 15.9946 0.395088 16.9484 1.09835 17.6516C1.80161 18.3549 2.75544 18.75 3.75 18.75H56.25C57.2446 18.75 58.1984 18.3549 58.9016 17.6516C59.6049 16.9484 60 15.9946 60 15V7.5C60 6.50544 59.6049 5.55161 58.9016 4.84835C58.1984 4.14509 57.2446 3.75 56.25 3.75H3.75Z" fill="#D9A3CA"/>
</g>
<defs>
<clipPath id="clip0">
<rect width="60" height="60" fill="white"/>
</clipPath>
</defs>
</svg>
