<svg width="60" height="60" viewBox="0 0 60 60" fill="none" xmlns="http://www.w3.org/2000/svg">
<path d="M29.5724 28.9022C33.5431 28.9022 36.9809 27.4781 39.7907 24.6684C42.5995 21.8591 44.024 18.4217 44.024 14.4507C44.024 10.4809 42.5999 7.04314 39.7902 4.23293C36.9804 1.4241 33.5426 0 29.5724 0C25.6013 0 22.164 1.4241 19.3547 4.23339C16.5454 7.04268 15.1208 10.4805 15.1208 14.4507C15.1208 18.4217 16.5454 21.8595 19.3547 24.6688C22.1649 27.4777 25.6027 28.9022 29.5724 28.9022ZM21.8413 6.7195C23.9969 4.5639 26.5256 3.51608 29.5724 3.51608C32.6189 3.51608 35.148 4.5639 37.3041 6.7195C39.4597 8.87556 40.508 11.4047 40.508 14.4507C40.508 17.4975 39.4597 20.0262 37.3041 22.1823C35.148 24.3383 32.6189 25.3862 29.5724 25.3862C26.5265 25.3862 23.9978 24.3379 21.8413 22.1823C19.6852 20.0267 18.6369 17.4975 18.6369 14.4507C18.6369 11.4047 19.6852 8.87556 21.8413 6.7195Z" fill="#D9A3CA"/>
<path d="M54.8589 46.137C54.7778 44.9679 54.614 43.6926 54.3727 42.3458C54.1292 40.989 53.8156 39.7064 53.4402 38.534C53.0521 37.3223 52.5252 36.1258 51.8729 34.9791C51.1967 33.7889 50.4021 32.7525 49.5103 31.8997C48.5779 31.0075 47.4362 30.2902 46.116 29.767C44.8004 29.2465 43.3424 28.9828 41.7828 28.9828C41.1703 28.9828 40.578 29.2341 39.4341 29.9789C38.73 30.438 37.9065 30.9691 36.9873 31.5564C36.2013 32.0572 35.1366 32.5264 33.8214 32.9512C32.5383 33.3664 31.2355 33.5769 29.9492 33.5769C28.6638 33.5769 27.361 33.3664 26.077 32.9512C24.7632 32.5268 23.698 32.0576 22.9134 31.5568C22.0029 30.975 21.1789 30.444 20.4643 29.9785C19.3213 29.2337 18.7289 28.9824 18.1165 28.9824C16.5564 28.9824 15.0989 29.2465 13.7837 29.7674C12.4644 30.2897 11.3223 31.007 10.3889 31.9001C9.49722 32.7534 8.70255 33.7893 8.02689 34.9791C7.37549 36.1258 6.84814 37.3219 6.45996 38.5345C6.08505 39.7068 5.77148 40.989 5.52795 42.3458C5.28625 43.6907 5.12283 44.9665 5.04181 46.1384C4.96216 47.2842 4.92188 48.4766 4.92188 49.6815C4.92188 52.8135 5.91751 55.349 7.88086 57.219C9.81995 59.0642 12.3853 59.9999 15.5058 59.9999H44.3962C47.5159 59.9999 50.0812 59.0642 52.0207 57.219C53.9845 55.3504 54.9802 52.814 54.9802 49.681C54.9797 48.4721 54.939 47.2796 54.8589 46.137ZM49.5964 54.6716C48.3151 55.891 46.6141 56.4838 44.3958 56.4838H15.5058C13.287 56.4838 11.586 55.891 10.3052 54.672C9.04861 53.4759 8.43796 51.843 8.43796 49.6815C8.43796 48.5572 8.47504 47.4471 8.54919 46.3815C8.62152 45.3359 8.76938 44.1874 8.98865 42.967C9.20517 41.7617 9.48074 40.6306 9.8085 39.6066C10.123 38.6247 10.5519 37.6524 11.0838 36.7158C11.5915 35.8232 12.1756 35.0573 12.8201 34.4403C13.423 33.863 14.1829 33.3906 15.0783 33.0363C15.9064 32.7086 16.837 32.5291 17.8473 32.5021C17.9704 32.5676 18.1897 32.6925 18.5449 32.9242C19.2677 33.3952 20.1009 33.9326 21.0219 34.5208C22.0601 35.1828 23.3977 35.7806 24.9957 36.2965C26.6295 36.8248 28.2957 37.093 29.9496 37.093C31.6035 37.093 33.2703 36.8248 34.9031 36.297C36.5025 35.7801 37.8397 35.1828 38.8792 34.5199C39.8218 33.9175 40.6316 33.3957 41.3544 32.9242C41.7096 32.693 41.9289 32.5676 42.052 32.5021C43.0627 32.5291 43.9934 32.7086 44.8219 33.0363C45.7169 33.3906 46.4767 33.8635 47.0796 34.4403C47.7242 35.0569 48.3083 35.8227 48.8159 36.7163C49.3483 37.6524 49.7777 38.6251 50.0917 39.6061C50.4199 40.6315 50.696 41.7622 50.912 42.9666C51.1308 44.1892 51.2791 45.3382 51.3515 46.3819V46.3828C51.4261 47.4444 51.4636 48.554 51.4641 49.6815C51.4636 51.8435 50.853 53.4759 49.5964 54.6716Z" fill="#D9A3CA"/>
</svg>
